HIERARCHY
ROOT Hips
{
    OFFSET 0.000000 0.000000 0.000000
    CHANNELS 6 Xposition Yposition Zposition Zrotation Xrotation Yrotation
    JOINT Spine
    {
        OFFSET -0.000000 7.777471 0.000000
        CHANNELS 3 Zrotation Xrotation Yrotation
        JOINT Spine1
        {
            OFFSET -0.000000 19.237825 0.000000
            CHANNELS 3 Zrotation Xrotation Yrotation
            JOINT Neck
            {
                OFFSET -0.000000 19.158819 1.741711
                CHANNELS 3 Zrotation Xrotation Yrotation
                JOINT Head
                {
                    OFFSET -0.000000 13.278608 -1.896944
                    CHANNELS 3 Zrotation Xrotation Yrotation
                    End Site
                    {
                        OFFSET -0.000000 23.711800 0.000000
                    }
                }
            }
            JOINT LeftShoulder
            {
                OFFSET 3.902881 16.228098 -0.345960
                CHANNELS 3 Zrotation Xrotation Yrotation
                JOINT LeftArm
                {
                    OFFSET 14.116480 0.000000 0.000000
                    CHANNELS 3 Zrotation Xrotation Yrotation
                    JOINT LeftForeArm
                    {
                        OFFSET 25.961430 0.000000 0.000000
                        CHANNELS 3 Zrotation Xrotation Yrotation
                        JOINT LeftHand
                        {
                            OFFSET 27.536947 0.000000 0.000000
                            CHANNELS 3 Zrotation Xrotation Yrotation
                            JOINT LeftHandThumb1
                            {
                                OFFSET 2.371180 -1.422708 4.742360
                                CHANNELS 3 Zrotation Xrotation Yrotation
                                JOINT LeftHandThumb2
                                {
                                    OFFSET 2.845416 0.000000 0.000000
                                    CHANNELS 3 Zrotation Xrotation Yrotation
                                    JOINT LeftHandThumb3
                                    {
                                        OFFSET 2.845416 0.000000 0.000000
                                        CHANNELS 3 Zrotation Xrotation Yrotation
                                        End Site
                                        {
                                            OFFSET 2.698797 0.000000 0.000000
                                        }
                                    }
                                }
                            }
                            JOINT LeftHandIndex1
                            {
                                OFFSET 7.559764 0.000000 3.319652
                                CHANNELS 3 Zrotation Xrotation Yrotation
                                JOINT LeftHandIndex2
                                {
                                    OFFSET 4.742360 0.000000 0.000000
                                    CHANNELS 3 Zrotation Xrotation Yrotation
                                    JOINT LeftHandIndex3
                                    {
                                        OFFSET 2.371180 0.000000 0.000000
                                        CHANNELS 3 Zrotation Xrotation Yrotation
                                        End Site
                                        {
                                            OFFSET 2.248998 0.000000 0.000000
                                        }
                                    }
                                }
                            }
                            JOINT LeftHandMiddle1
                            {
                                OFFSET 7.559764 0.000000 1.100227
                                CHANNELS 3 Zrotation Xrotation Yrotation
                                JOINT LeftHandMiddle2
                                {
                                    OFFSET 5.216596 0.000000 0.000000
                                    CHANNELS 3 Zrotation Xrotation Yrotation
                                    JOINT LeftHandMiddle3
                                    {
                                        OFFSET 2.845416 0.000000 0.000000
                                        CHANNELS 3 Zrotation Xrotation Yrotation
                                        End Site
                                        {
                                            OFFSET 2.698797 0.000000 0.000000
                                        }
                                    }
                                }
                            }
                            JOINT LeftHandRing1
                            {
                                OFFSET 5.414583 0.000000 -1.100227
                                CHANNELS 3 Zrotation Xrotation Yrotation
                                JOINT LeftHandRing2
                                {
                                    OFFSET 4.742360 0.000000 0.000000
                                    CHANNELS 3 Zrotation Xrotation Yrotation
                                    JOINT LeftHandRing3
                                    {
                                        OFFSET 2.371180 0.000000 0.000000
                                        CHANNELS 3 Zrotation Xrotation Yrotation
                                        End Site
                                        {
                                            OFFSET 2.248998 0.000000 0.000000
                                        }
                                    }
                                }
                            }
                            JOINT LeftHandPinky1
                            {
                                OFFSET 3.269401 0.000000 -3.319652
                                CHANNELS 3 Zrotation Xrotation Yrotation
                                JOINT LeftHandPinky2
                                {
                                    OFFSET 3.793888 0.000000 0.000000
                                    CHANNELS 3 Zrotation Xrotation Yrotation
                                    JOINT LeftHandPinky3
                                    {
                                        OFFSET 1.896944 0.000000 0.000000
                                        CHANNELS 3 Zrotation Xrotation Yrotation
                                        End Site
                                        {
                                            OFFSET 1.799198 0.000000 0.000000
                                        }
                                    }
                                }
                            }
                        }
                    }
                }
            }
            JOINT RightShoulder
            {
                OFFSET -3.635630 16.228098 -0.345960
                CHANNELS 3 Zrotation Xrotation Yrotation
                JOINT RightArm
                {
                    OFFSET -14.116480 0.000000 0.000000
                    CHANNELS 3 Zrotation Xrotation Yrotation
                    JOINT RightForeArm
                    {
                        OFFSET -25.961430 0.000000 0.000000
                        CHANNELS 3 Zrotation Xrotation Yrotation
                        JOINT RightHand
                        {
                            OFFSET -27.536947 0.000000 0.000000
                            CHANNELS 3 Zrotation Xrotation Yrotation
                            JOINT RightHandThumb1
                            {
                                OFFSET -2.371180 -1.422708 4.742360
                                CHANNELS 3 Zrotation Xrotation Yrotation
                                JOINT RightHandThumb2
                                {
                                    OFFSET -2.845416 0.000000 0.000000
                                    CHANNELS 3 Zrotation Xrotation Yrotation
                                    JOINT RightHandThumb3
                                    {
                                        OFFSET -2.845416 0.000000 0.000000
                                        CHANNELS 3 Zrotation Xrotation Yrotation
                                        End Site
                                        {
                                            OFFSET -2.698797 0.000000 0.000000
                                        }
                                    }
                                }
                            }
                            JOINT RightHandIndex1
                            {
                                OFFSET -7.559764 0.000000 3.319652
                                CHANNELS 3 Zrotation Xrotation Yrotation
                                JOINT RightHandIndex2
                                {
                                    OFFSET -4.742360 0.000000 0.000000
                                    CHANNELS 3 Zrotation Xrotation Yrotation
                                    JOINT RightHandIndex3
                                    {
                                        OFFSET -2.371180 0.000000 0.000000
                                        CHANNELS 3 Zrotation Xrotation Yrotation
                                        End Site
                                        {
                                            OFFSET -2.248998 0.000000 0.000000
                                        }
                                    }
                                }
                            }
                            JOINT RightHandMiddle1
                            {
                                OFFSET -7.559764 0.000000 1.100227
                                CHANNELS 3 Zrotation Xrotation Yrotation
                                JOINT RightHandMiddle2
                                {
                                    OFFSET -5.216596 0.000000 0.000000
                                    CHANNELS 3 Zrotation Xrotation Yrotation
                                    JOINT RightHandMiddle3
                                    {
                                        OFFSET -2.845416 0.000000 0.000000
                                        CHANNELS 3 Zrotation Xrotation Yrotation
                                        End Site
                                        {
                                            OFFSET -2.698797 0.000000 0.000000
                                        }
                                    }
                                }
                            }
                            JOINT RightHandRing1
                            {
                                OFFSET -5.414583 0.000000 -1.100227
                                CHANNELS 3 Zrotation Xrotation Yrotation
                                JOINT RightHandRing2
                                {
                                    OFFSET -4.742360 0.000000 0.000000
                                    CHANNELS 3 Zrotation Xrotation Yrotation
                                    JOINT RightHandRing3
                                    {
                                        OFFSET -2.371180 0.000000 0.000000
                                        CHANNELS 3 Zrotation Xrotation Yrotation
                                        End Site
                                        {
                                            OFFSET -2.248998 0.000000 0.000000
                                        }
                                    }
                                }
                            }
                            JOINT RightHandPinky1
                            {
                                OFFSET -3.269401 0.000000 -3.319652
                                CHANNELS 3 Zrotation Xrotation Yrotation
                                JOINT RightHandPinky2
                                {
                                    OFFSET -3.793888 0.000000 0.000000
                                    CHANNELS 3 Zrotation Xrotation Yrotation
                                    JOINT RightHandPinky3
                                    {
                                        OFFSET -1.896944 0.000000 0.000000
                                        CHANNELS 3 Zrotation Xrotation Yrotation
                                        End Site
                                        {
                                            OFFSET -1.799198 0.000000 0.000000
                                        }
                                    }
                                }
                            }
                        }
                    }
                }
            }
        }
    }
    JOINT LeftUpLeg
    {
        OFFSET 9.484720 0.000000 0.000000
        CHANNELS 3 Zrotation Xrotation Yrotation
        JOINT LeftLeg
        {
            OFFSET -0.000000 -47.884224 0.000000
            CHANNELS 3 Zrotation Xrotation Yrotation
            JOINT LeftFoot
            {
                OFFSET -0.000000 -35.185558 0.000000
                CHANNELS 3 Zrotation Xrotation Yrotation
                JOINT LeftToeBase
                {
                    OFFSET -0.000000 -6.165068 14.227080
                    CHANNELS 3 Zrotation Xrotation Yrotation
                    End Site
                    {
                        OFFSET -0.000000 0.000000 3.793888
                    }
                }
            }
        }
    }
    JOINT RightUpLeg
    {
        OFFSET -9.484720 0.000000 0.000000
        CHANNELS 3 Zrotation Xrotation Yrotation
        JOINT RightLeg
        {
            OFFSET -0.000000 -47.884224 0.000000
            CHANNELS 3 Zrotation Xrotation Yrotation
            JOINT RightFoot
            {
                OFFSET -0.000000 -35.185558 0.000000
                CHANNELS 3 Zrotation Xrotation Yrotation
                JOINT RightToeBase
                {
                    OFFSET -0.000000 -6.165068 14.227080
                    CHANNELS 3 Zrotation Xrotation Yrotation
                    End Site
                    {
                        OFFSET -0.000000 0.000000 3.793888
                    }
                }
            }
        }
    }
}
MOTION
Frames:    4
Frame Time:    0.008333
8.492906    95.542274    -40.312275    -15.581747    10.657875    -2.185060    0.083435    -11.939337    1.083259    -6.399944    6.721532    1.450658    5.427754    6.184227    -6.112040    28.178268    4.860661    -3.991858    7.123963    12.913464    11.242060    -60.087269    40.068142    -30.907719    63.942741    -25.430155    -73.767181    -3.113706    -2.969110    -28.213909    -2.712575    -1.994855    36.305168    -0.000000    0.000000    18.176205    -0.000000    0.000000    36.352409    -34.347294    0.000000    0.000000    -68.694588    0.000000    0.000000    -34.347294    0.000000    0.000000    -30.803490    0.000000    0.000000    -61.606987    0.000000    0.000000    -30.803490    0.000000    0.000000    -27.259697    0.000000    0.000000    -54.519402    0.000000    0.000000    -27.259697    0.000000    0.000000    -23.608517    0.000000    0.000000    -47.217033    0.000000    0.000000    -23.608517    0.000000    0.000000    -6.033883    8.011444    7.047335    34.112896    30.429449    11.086331    -59.473770    -29.348766    87.593407    -4.207700    -2.664974    16.714329    3.526469    -12.524908    -74.136421    0.000000    0.000000    -37.261765    0.000000    0.000000    -74.523529    33.610527    16.983587    23.723919    74.405853    0.000000    -0.000000    37.202927    0.000000    -0.000000    30.406580    10.858871    16.158634    64.152214    0.000000    -0.000000    32.076115    0.000000    -0.000000    26.468275    5.203982    8.372369    53.898605    0.000000    -0.000000    26.949303    0.000000    -0.000000    21.667130    0.000000    -0.000000    43.334259    0.000000    -0.000000    21.667130    0.000000    -0.000000    24.584162    -27.413166    6.282678    -8.425384    45.891514    -5.054442    -12.346828    -9.990038    15.103578    -0.320926    -17.886600    1.313914    5.349400    -17.500820    2.688533    9.387049    25.196133    -1.782112    11.693158    -2.643078    -10.639058    1.044244    -25.750185    -5.242150
8.599318    95.512085    -40.251720    -14.933788    10.146218    -2.916967    0.063988    -11.472949    1.079317    -6.097120    6.639795    1.426830    5.896836    6.185357    -5.636990    26.982765    4.936253    -3.682467    7.467526    12.783511    9.892202    -59.007027    41.283134    -33.357395    63.520641    -26.424158    -74.937744    -4.364685    -2.953911    -28.055840    -2.386685    -1.898298    38.476421    -0.000000    0.000000    19.257986    -0.000000    0.000000    38.515972    -33.157005    0.000000    0.000000    -66.314011    0.000000    0.000000    -33.157005    0.000000    0.000000    -29.990509    0.000000    0.000000    -59.981018    0.000000    0.000000    -29.990509    0.000000    0.000000    -26.824011    0.000000    0.000000    -53.648026    0.000000    0.000000    -26.824011    0.000000    0.000000    -23.561562    0.000000    0.000000    -47.123123    0.000000    0.000000    -23.561562    0.000000    0.000000    -5.436941    7.872775    8.023736    35.608269    29.211134    11.105453    -58.776077    -30.289518    91.081917    -4.815241    -2.876732    16.515919    5.716300    -14.233188    -67.847290    0.000000    0.000000    -34.280777    0.000000    0.000000    -68.561554    33.610527    16.983587    23.723919    74.405853    0.000000    -0.000000    37.202927    0.000000    -0.000000    30.466270    10.866844    16.152452    64.269836    0.000000    -0.000000    32.134914    0.000000    -0.000000    26.586683    5.212308    8.366500    54.133823    0.000000    -0.000000    27.066912    0.000000    -0.000000    21.845322    0.000000    -0.000000    43.690643    0.000000    -0.000000    21.845322    0.000000    -0.000000    22.959221    -26.590630    6.935712    -8.237597    44.381035    -4.781934    -12.216899    -9.906277    17.065447    -0.532603    -19.000542    2.270089    5.844652    -16.785114    2.770690    9.642932    26.118700    -2.659664    11.333534    -2.246859    -10.989064    1.053188    -25.996529    -5.348577
8.737850    95.418228    -40.223515    -14.138239    9.869742    -3.605077    -0.060342    -11.235255    0.996396    -5.879385    6.588232    1.340970    6.654263    6.077738    -5.082078    25.366337    5.020055    -3.367000    8.135316    12.513422    8.604439    -56.804127    43.019512    -36.490700    64.236443    -27.761963    -74.824776    -6.228783    -3.853779    -28.397913    -2.386685    -1.898298    38.476421    -0.000000    0.000000    19.257986    -0.000000    0.000000    38.515972    -30.147120    0.000000    0.000000    -60.294239    0.000000    0.000000    -30.147120    0.000000    0.000000    -26.606028    0.000000    0.000000    -53.212059    0.000000    0.000000    -26.606028    0.000000    0.000000    -23.064938    0.000000    0.000000    -46.129887    0.000000    0.000000    -23.064938    0.000000    0.000000    -19.416548    0.000000    0.000000    -38.833096    0.000000    0.000000    -19.416548    0.000000    0.000000    -4.849930    7.787539    8.792010    37.105778    28.242264    11.259883    -53.735889    -31.357496    96.327774    -4.329514    -0.933457    16.720959    5.716300    -14.233188    -67.847290    0.000000    0.000000    -34.280777    0.000000    0.000000    -68.561554    89.999992    39.999996    0.000000    110.000000    0.000000    -0.000000    80.000000    0.000000    -0.000000    65.221428    27.052671    6.049903    88.574951    0.000000    -0.000000    61.037479    0.000000    -0.000000    43.957699    13.172948    5.617607    67.149902    0.000000    -0.000000    42.074944    0.000000    -0.000000    22.537804    0.000000    -0.000000    45.075607    0.000000    -0.000000    22.537804    0.000000    -0.000000    21.081928    -25.986328    7.811870    -7.430538    42.708092    -3.582930    -11.889706    -9.170465    18.710825    -0.796432    -17.374708    3.202180    6.111173    -16.300114    2.900608    9.853266    26.735258    -3.486027    11.472255    -1.261110    -11.443638    1.096830    -26.312489    -5.654654
8.873233    95.191589    -40.223564    -13.394053    9.661649    -4.250396    -0.130039    -10.921470    0.872938    -5.349334    6.341992    1.181854    7.059793    5.867277    -4.538340    23.553368    5.361750    -3.108468    8.546351    12.206409    7.260860    -53.281158    44.596310    -40.137196    64.239342    -29.836786    -74.826454    -5.716274    -1.725968    -27.625380    -2.386685    -1.898298    38.476421    -0.000000    0.000000    19.257986    -0.000000    0.000000    38.515972    -28.706459    0.000000    0.000000    -57.412918    0.000000    0.000000    -28.706459    0.000000    0.000000    -25.812914    0.000000    0.000000    -51.625839    0.000000    0.000000    -25.812914    0.000000    0.000000    -22.919367    0.000000    0.000000    -45.838741    0.000000    0.000000    -22.919367    0.000000    0.000000    -19.938141    0.000000    0.000000    -39.876282    0.000000    0.000000    -19.938141    0.000000    0.000000    -5.052059    7.812898    9.261064    38.963226    27.023991    11.622190    -50.361103    -31.448112    100.560265    -4.380864    -0.761017    15.854695    4.674660    -11.342429    -67.424095    0.000000    0.000000    -33.944290    0.000000    0.000000    -67.888580    89.999992    39.999996    0.000000    110.000000    0.000000    -0.000000    80.000000    0.000000    -0.000000    64.961220    27.058149    6.116654    88.110153    0.000000    -0.000000    60.805084    0.000000    -0.000000    43.476475    13.163611    5.679103    66.220329    0.000000    -0.000000    41.610172    0.000000    -0.000000    21.833590    0.000000    -0.000000    43.667179    0.000000    -0.000000    21.833590    0.000000    -0.000000    19.243238    -25.422655    8.857109    -6.372257    40.840061    -1.463436    -7.830111    -7.647008    19.734447    -0.661790    -14.080336    2.393442    6.284297    -15.833631    3.121858    10.189882    26.982615    -4.258950    11.796858    0.335732    -11.938381    1.074251    -26.609367    -5.619088
